<svg width="29" height="34" viewBox="0 0 29 34" fill="none" xmlns="http://www.w3.org/2000/svg">
<path d="M27.6818 14.0915C27.6818 24.2733 14.5909 33.0006 14.5909 33.0006C14.5909 33.0006 1.5 24.2733 1.5 14.0915C1.5 10.6195 2.87922 7.28981 5.33424 4.83479C7.78926 2.37977 11.119 1.00055 14.5909 1.00055C18.0628 1.00055 21.3926 2.37977 23.8476 4.83479C26.3026 7.28981 27.6818 10.6195 27.6818 14.0915Z" stroke="#F5F5F5" stroke-width="1.5" stroke-linecap="round" stroke-linejoin="round"></path>
<path d="M14.5909 18.4551C17.0009 18.4551 18.9545 16.5015 18.9545 14.0915C18.9545 11.6815 17.0009 9.72784 14.5909 9.72784C12.1809 9.72784 10.2273 11.6815 10.2273 14.0915C10.2273 16.5015 12.1809 18.4551 14.5909 18.4551Z" stroke="#F5F5F5" stroke-width="1.5" stroke-linecap="round" stroke-linejoin="round"></path>
</svg>